<svg width="99" height="86" viewBox="0 0 99 86" fill="none" xmlns="http://www.w3.org/2000/svg">
<path d="M49.5729 23.5313C52.8281 10.6813 65.1226 4.12006 91.8906 4.00002C92.3186 3.99841 92.7426 4.08151 93.1382 4.24452C93.5339 4.40754 93.8934 4.64726 94.196 4.94985C94.4986 5.25245 94.7383 5.61194 94.9013 6.00761C95.0643 6.40328 95.1474 6.8273 95.1458 7.25523V65.849C95.1458 66.7123 94.8029 67.5403 94.1924 68.1507C93.5819 68.7612 92.754 69.1042 91.8906 69.1042C65.849 69.1042 55.7883 74.3552 49.5729 82.125M49.5729 23.5313C46.3177 10.6813 34.0232 4.12006 7.25523 4.00002C6.8273 3.99841 6.40328 4.08151 6.00761 4.24452C5.61194 4.40754 5.25245 4.64726 4.94985 4.94985C4.64726 5.25245 4.40754 5.61194 4.24452 6.00761C4.08151 6.40328 3.99841 6.8273 4.00002 7.25523V65.4563C4.00002 67.4664 5.24514 69.1042 7.25523 69.1042C33.2969 69.1042 43.3941 74.3939 49.5729 82.125M49.5729 23.5313V82.125" stroke="#F8F8F8" stroke-width="6.51041" stroke-linecap="round" stroke-linejoin="round"/>
</svg>
