<svg width="78" height="78" viewBox="0 0 78 78" fill="none" xmlns="http://www.w3.org/2000/svg">
<path d="M63.3021 0C71.0052 0 77.25 6.24468 77.25 13.9479V63.3021C77.25 71.0052 71.0052 77.25 63.3021 77.25H13.9479C6.24468 77.25 0 71.0052 0 63.3021V13.9479C0 6.24468 6.24468 0 13.9479 0H63.3021ZM70.8125 23.6042H6.4375V63.3021C6.4375 67.45 9.80002 70.8125 13.9479 70.8125H63.3021C67.45 70.8125 70.8125 67.45 70.8125 63.3021V23.6042ZM20.3854 49.3542C23.3482 49.3542 25.75 51.7558 25.75 54.7187C25.75 57.6817 23.3482 60.0833 20.3854 60.0833C17.4226 60.0833 15.0208 57.6817 15.0208 54.7187C15.0208 51.7558 17.4226 49.3542 20.3854 49.3542ZM38.625 49.3542C41.588 49.3542 43.9896 51.7558 43.9896 54.7187C43.9896 57.6817 41.588 60.0833 38.625 60.0833C35.662 60.0833 33.2604 57.6817 33.2604 54.7187C33.2604 51.7558 35.662 49.3542 38.625 49.3542ZM20.3854 32.1875C23.3482 32.1875 25.75 34.5891 25.75 37.5521C25.75 40.515 23.3482 42.9167 20.3854 42.9167C17.4226 42.9167 15.0208 40.515 15.0208 37.5521C15.0208 34.5891 17.4226 32.1875 20.3854 32.1875ZM38.625 32.1875C41.588 32.1875 43.9896 34.5891 43.9896 37.5521C43.9896 40.515 41.588 42.9167 38.625 42.9167C35.662 42.9167 33.2604 40.515 33.2604 37.5521C33.2604 34.5891 35.662 32.1875 38.625 32.1875ZM56.8646 32.1875C59.8275 32.1875 62.2292 34.5891 62.2292 37.5521C62.2292 40.515 59.8275 42.9167 56.8646 42.9167C53.9016 42.9167 51.5 40.515 51.5 37.5521C51.5 34.5891 53.9016 32.1875 56.8646 32.1875ZM63.3021 6.4375H13.9479C9.80002 6.4375 6.4375 9.80002 6.4375 13.9479V17.1667H70.8125V13.9479C70.8125 9.80002 67.45 6.4375 63.3021 6.4375Z" fill="white"/>
</svg>
