<svg width="84" height="81" viewBox="0 0 84 81" fill="none" xmlns="http://www.w3.org/2000/svg">
<path d="M81.4867 13.0402L42.8617 0.165199C42.2009 -0.0550665 41.4866 -0.0550665 40.8258 0.165199L2.20082 13.0402C1.55991 13.2539 1.00247 13.6638 0.607472 14.2118C0.212476 14.7599 -5.00607e-05 15.4184 8.84496e-09 16.094V48.2815C8.84496e-09 49.1352 0.339117 49.9539 0.94275 50.5575C1.54638 51.1611 2.36508 51.5002 3.21875 51.5002C4.07242 51.5002 4.89112 51.1611 5.49475 50.5575C6.09838 49.9539 6.4375 49.1352 6.4375 48.2815V20.56L19.9522 25.0622C16.3615 30.8632 15.2197 37.8521 16.7775 44.4942C18.3352 51.1364 22.4652 56.8889 28.2606 60.4886C21.0184 63.3291 14.758 68.4671 10.1793 75.492C9.94117 75.8459 9.77577 76.2436 9.69271 76.662C9.60964 77.0804 9.61057 77.5112 9.69544 77.9292C9.78031 78.3473 9.94743 78.7443 10.1871 79.0971C10.4267 79.45 10.7341 79.7518 11.0914 79.9848C11.4487 80.2178 11.8488 80.3775 12.2683 80.4546C12.6878 80.5317 13.1185 80.5246 13.5353 80.4337C13.9521 80.3429 14.3467 80.1701 14.6961 79.9254C15.0455 79.6808 15.3428 79.3691 15.5707 79.0085C21.634 69.7063 31.2098 64.3752 41.8438 64.3752C52.4777 64.3752 62.0535 69.7063 68.1168 79.0085C68.5889 79.7101 69.3182 80.1978 70.1469 80.3661C70.9757 80.5343 71.8374 80.3697 72.5458 79.9076C73.2541 79.4456 73.7522 78.7234 73.9323 77.8971C74.1124 77.0708 73.96 76.2069 73.5082 75.492C68.9295 68.4671 62.6449 63.3291 55.4269 60.4886C61.2167 56.889 65.3428 51.1403 66.9003 44.503C68.4578 37.8657 67.3196 30.8817 63.7353 25.0823L81.4867 19.1679C82.1277 18.9544 82.6853 18.5445 83.0805 17.9964C83.4756 17.4483 83.6882 16.7898 83.6882 16.1141C83.6882 15.4384 83.4756 14.7799 83.0805 14.2318C82.6853 13.6837 82.1277 13.2738 81.4867 13.0603V13.0402ZM61.1562 38.6252C61.1571 41.6784 60.4341 44.6884 59.0464 47.408C57.6588 50.1277 55.6461 52.4796 53.1735 54.2707C50.7009 56.0619 47.8388 57.2413 44.8221 57.7122C41.8054 58.183 38.7201 57.932 35.8192 56.9795C32.9184 56.0271 30.2847 54.4004 28.1343 52.233C25.9838 50.0656 24.3779 47.4192 23.4482 44.511C22.5186 41.6027 22.2917 38.5155 22.7863 35.5026C23.2808 32.4897 24.4826 29.637 26.2932 27.1786L40.8258 32.0067C41.4866 32.227 42.2009 32.227 42.8617 32.0067L57.3943 27.1786C59.8397 30.4939 61.1582 34.5056 61.1562 38.6252Z" fill="white"/>
</svg>
