<svg width="237" height="208" viewBox="0 0 237 208" fill="none" xmlns="http://www.w3.org/2000/svg">
<path d="M135.795 145.403L197.927 207.535V145.403H135.795Z" fill="white"/>
<path d="M219.705 162.056H17.2936C7.78248 162.056 0 154.274 0 144.762V17.2951C0 7.7825 7.78248 0 17.2936 0H219.705C229.217 0 237 7.7825 237 17.2951V144.762C237 154.274 229.217 162.056 219.705 162.056Z" fill="white"/>
<path d="M152.825 118.179L149.816 105.059C149.028 101.617 149.017 98.0429 149.789 94.5965L153.977 75.9095C157.709 59.2478 149.252 42.6015 134.601 35.2762C134.725 34.9286 134.869 34.5903 134.952 34.2211C136.019 29.4556 133.021 24.727 128.255 23.6596C123.491 22.5922 118.763 25.589 117.694 30.3546C117.612 30.7238 117.597 31.0915 117.561 31.4576C101.185 31.8329 86.4342 43.2796 82.7005 59.9398L78.5142 78.6283C77.7418 82.0747 76.2079 85.3032 74.0267 88.0792L65.7066 98.6608C62.1598 103.173 64.5341 109.843 70.1354 111.098L143.513 127.538C149.114 128.793 154.107 123.774 152.825 118.179Z" fill="#2B4C65"/>
<path d="M97.4093 122.23C94.9948 121.69 92.8275 123.786 93.2415 126.225C94.0803 131.148 97.8032 135.321 102.98 136.481C108.156 137.641 113.302 135.457 116.161 131.36C117.578 129.332 116.51 126.511 114.096 125.97L97.4093 122.23Z" fill="#2B4C65"/>
<path d="M41.06 96.1993C40.3124 96.1993 39.5786 95.8378 39.1322 95.1689C31.7806 84.1594 29.1576 70.9487 31.7451 57.9681C34.3326 44.9874 41.82 33.791 52.828 26.4411C53.8923 25.7289 55.329 26.0163 56.0411 27.0806C56.7517 28.1449 56.4659 29.5847 55.4016 30.2952C45.4224 36.9578 38.6363 47.1069 36.2898 58.8733C33.9464 70.6397 36.3238 82.6162 42.9848 92.5954C43.6954 93.6597 43.4096 95.0979 42.3453 95.8085C41.9498 96.0726 41.5018 96.1993 41.06 96.1993Z" fill="#2B4C65"/>
<path d="M50.881 89.6425C50.1334 89.6425 49.3996 89.281 48.9532 88.6121C43.355 80.2272 41.3561 70.1646 43.3272 60.2766C45.2983 50.3886 51.0015 41.8615 59.3865 36.2633C60.4477 35.5512 61.889 35.8385 62.5996 36.9029C63.3102 37.9672 63.0228 39.4069 61.96 40.1175C54.6039 45.0283 49.602 52.5096 47.8718 61.1818C46.1433 69.8557 47.895 78.6824 52.8058 86.0386C53.5164 87.1029 53.2306 88.5411 52.1663 89.2517C51.7708 89.5158 51.3228 89.6425 50.881 89.6425Z" fill="#2B4C65"/>
<path d="M60.7028 83.0859C59.9552 83.0859 59.2214 82.7245 58.775 82.0556C54.927 76.2952 53.5537 69.3793 54.9084 62.5854C56.2616 55.7916 60.1807 49.9308 65.9426 46.0843C67.0054 45.3706 68.4436 45.6595 69.1557 46.7239C69.8663 47.7882 69.579 49.2279 68.5162 49.9385C63.7831 53.0975 60.5653 57.911 59.4531 63.4907C58.3409 69.0703 59.4686 74.7504 62.6276 79.482C63.3382 80.5464 63.0524 81.9845 61.9881 82.6951C61.5926 82.9593 61.1462 83.0859 60.7028 83.0859Z" fill="#2B4C65"/>
<path d="M174.652 128.812C173.813 128.812 173.004 128.355 172.591 127.558C172.004 126.421 172.45 125.023 173.587 124.436C184.249 118.932 192.129 109.605 195.776 98.1752C199.422 86.744 198.398 74.5775 192.894 63.9156C192.307 62.7786 192.753 61.3822 193.889 60.7936C195.027 60.2097 196.424 60.6515 197.012 61.79C203.083 73.5518 204.214 86.9726 200.19 99.5825C196.169 112.194 187.475 122.482 175.713 128.554C175.373 128.729 175.01 128.812 174.652 128.812Z" fill="#2B4C65"/>
<path d="M169.234 118.321C168.396 118.321 167.586 117.864 167.174 117.067C166.587 115.93 167.033 114.532 168.168 113.945C176.028 109.887 181.836 103.012 184.524 94.5872C187.212 86.1606 186.457 77.1917 182.399 69.3335C181.813 68.1966 182.26 66.7986 183.395 66.2116C184.532 65.6277 185.93 66.0695 186.517 67.2079C191.144 76.166 192.003 86.3892 188.939 95.9945C185.874 105.6 179.254 113.436 170.296 118.063C169.956 118.238 169.593 118.321 169.234 118.321Z" fill="#2B4C65"/>
<path d="M163.817 107.827C162.978 107.827 162.169 107.369 161.757 106.572C161.17 105.435 161.616 104.037 162.753 103.45C167.809 100.841 171.546 96.417 173.274 90.9965C175.003 85.5759 174.519 79.8062 171.907 74.7518C171.32 73.6148 171.767 72.2153 172.904 71.6283C174.042 71.0444 175.437 71.4877 176.026 72.6246C182.586 85.3303 177.586 101.006 164.879 107.569C164.539 107.743 164.176 107.827 163.817 107.827Z" fill="#2B4C65"/>
</svg>
