<svg width="1512" height="1747" viewBox="0 0 1512 1747" fill="none" xmlns="http://www.w3.org/2000/svg">
<path fill-rule="evenodd" clip-rule="evenodd" d="M1455.89 822.758L1454.78 830.742L1453.74 838.703L1452.75 846.646L1451.83 854.575L1450.95 862.494L1450.12 870.407L1449.34 878.317L1448.59 886.228L1447.88 894.143L1447.19 902.065L1446.52 909.996L1445.85 917.937L1445.19 925.891L1444.52 933.858L1443.85 941.84L1443.14 949.836L1442.41 957.848L1441.64 965.872L1440.81 973.907L1439.91 981.951L1438.92 989.998L1437.82 998.043L1436.61 1006.08L1435.26 1014.1L1433.74 1022.1L1432.06 1030.06L1430.18 1037.99L1428.1 1045.86L1425.8 1053.66L1423.27 1061.39L1420.49 1069.04L1417.46 1076.59L1414.17 1084.03L1410.62 1091.35L1406.79 1098.54L1402.7 1105.59L1398.32 1112.48L1393.67 1119.22L1388.76 1125.78L1383.57 1132.17L1378.13 1138.37L1372.43 1144.38L1366.49 1150.2L1360.32 1155.81L1353.93 1161.22L1347.33 1166.43L1340.55 1171.44L1333.59 1176.25L1326.48 1180.86L1319.23 1185.28L1311.87 1189.51L1304.4 1193.56L1296.85 1197.44L1289.24 1201.16L1281.6 1204.74L1273.93 1208.18L1266.26 1211.49L1258.6 1214.71L1250.98 1217.83L1243.42 1220.88L1235.93 1223.87L1228.52 1226.83L1221.22 1229.78L1214.03 1232.73L1206.98 1235.7L1200.06 1238.72L1193.3 1241.8L1186.7 1244.97L1180.26 1248.25L1174.01 1251.66L1167.93 1255.21L1162.04 1258.94L1156.33 1262.86L1150.81 1266.98L1145.47 1271.33L1140.31 1275.92L1135.33 1280.77L1130.52 1285.89L1125.88 1291.3L1121.39 1297.01L1117.05 1303.03L1112.84 1309.37L1108.75 1316.04L1104.78 1323.03L1100.89 1330.36L1097.09 1338.03L1093.35 1346.04L1089.65 1354.38L1085.98 1363.05L1082.32 1372.05L1078.66 1381.36L1074.96 1390.98L1071.22 1400.9L1067.42 1411.09L1063.53 1421.55L1059.54 1432.26L1055.44 1443.21L1051.19 1454.36L1046.8 1465.7L1042.24 1477.22L1037.5 1488.88L1032.56 1500.67L1027.41 1512.55L1022.05 1524.51L1016.45 1536.52L1010.61 1548.54L1004.52 1560.55L998.169 1572.5L991.549 1584.38L984.654 1596.13L977.479 1607.72L970.022 1619.11L962.281 1630.27L954.255 1641.15L945.945 1651.7L937.356 1661.9L928.492 1671.68L919.36 1681.02L909.971 1689.88L900.334 1698.21L890.464 1705.98L880.374 1713.16L870.082 1719.71L859.605 1725.61L848.963 1730.83L838.177 1735.35L827.268 1739.15L816.259 1742.21L805.174 1744.53L794.035 1746.1L782.868 1746.91L771.696 1746.97L760.544 1746.27L749.435 1744.83L738.392 1742.65L727.438 1739.75L716.594 1736.15L705.882 1731.87L695.318 1726.94L684.923 1721.38L674.711 1715.22L664.697 1708.51L654.893 1701.27L645.31 1693.54L635.957 1685.36L626.84 1676.78L617.962 1667.84L609.326 1658.58L600.932 1649.05L592.776 1639.3L584.853 1629.37L577.157 1619.31L569.678 1609.17L562.404 1598.99L555.321 1588.82L548.414 1578.7L541.666 1568.68L535.056 1558.8L528.564 1549.1L522.167 1539.61L515.843 1530.38L509.565 1521.44L503.309 1512.81L497.048 1504.53L490.755 1496.62L484.404 1489.1L477.966 1481.99L471.416 1475.31L464.727 1469.06L457.874 1463.26L450.831 1457.91L443.576 1453.01L436.086 1448.55L428.341 1444.54L420.322 1440.95L412.013 1437.79L403.4 1435.03L394.47 1432.64L385.215 1430.62L375.628 1428.93L365.705 1427.54L355.445 1426.43L344.85 1425.56L333.923 1424.89L322.674 1424.41L311.11 1424.06L299.245 1423.81L287.094 1423.62L274.674 1423.46L262.006 1423.29L249.114 1423.07L236.023 1422.77L222.766 1422.33L209.374 1421.72L195.883 1420.91L182.33 1419.86L168.754 1418.53L155.195 1416.88L141.693 1414.9L128.289 1412.56L115.024 1409.82L101.937 1406.67L89.0683 1403.09L76.455 1399.07L64.1356 1394.6L52.1479 1389.66L40.5283 1384.25L29.3123 1378.36L18.5337 1372L8.22482 1365.16L-1.58391 1357.86L-10.8638 1350.09L-19.5885 1341.86L-27.7336 1333.19L-35.2772 1324.09L-42.1999 1314.58L-48.4849 1304.67L-54.1181 1294.39L-59.0883 1283.74L-63.3873 1272.77L-67.0096 1261.48L-69.9531 1249.91L-72.2184 1238.08L-73.8096 1226.02L-74.7335 1213.76L-75 1201.32L-74.6222 1188.73L-73.6158 1176.02L-71.9996 1163.23L-69.795 1150.37L-67.0258 1137.47L-63.7184 1124.56L-59.9013 1111.67L-55.6052 1098.82L-50.8626 1086.04L-45.7076 1073.34L-40.1756 1060.75L-34.3033 1048.29L-28.1282 1035.97L-21.6887 1023.82L-15.0232 1011.83L-8.17061 1000.04L-1.16952 988.439L5.94178 977.046L13.1256 965.865L20.3452 954.9L27.5649 944.155L34.7503 933.63L41.8685 923.324L48.8884 913.235L55.7809 903.359L62.5187 893.691L69.077 884.223L75.4333 874.947L81.5673 865.854L87.4614 856.935L93.1007 848.177L98.4727 839.57L103.568 831.101L108.378 822.758L112.901 814.527L117.132 806.397L121.074 798.353L124.729 790.384L128.102 782.476L131.202 774.619L134.038 766.801L136.621 759.011L138.966 751.239L141.088 743.476L143.004 735.714L144.733 727.946L146.293 720.166L147.706 712.368L148.994 704.55L150.178 696.707L151.28 688.84L152.321 680.945L153.321 673.024L154.298 665.077L155.271 657.105L156.253 649.109L157.26 641.09L158.301 633.052L159.388 624.994L160.525 616.918L161.718 608.825L162.967 600.714L164.27 592.584L165.624 584.433L167.024 576.258L168.465 568.055L169.943 559.822L171.454 551.555L172.993 543.249L174.555 534.901L176.138 526.507L177.737 518.062L179.351 509.561L180.978 501L182.615 492.376L184.262 483.684L185.92 474.921L187.589 466.082L189.271 457.165L190.968 448.168L192.685 439.088L194.424 429.923L196.192 420.674L197.994 411.341L199.838 401.923L201.729 392.423L203.678 382.843L205.693 373.187L207.784 363.459L209.96 353.666L212.234 343.813L214.616 333.91L217.118 323.965L219.753 313.988L222.533 303.992L225.471 293.988L228.579 283.992L231.871 274.017L235.358 264.081L239.054 254.201L242.971 244.395L247.12 234.682L251.513 225.085L256.16 215.622L261.071 206.318L266.255 197.193L271.721 188.272L277.474 179.578L283.521 171.135L289.867 162.966L296.515 155.096L303.466 147.547L310.721 140.343L318.279 133.506L326.137 127.058L334.291 121.018L342.735 115.407L351.462 110.242L360.461 105.539L369.724 101.313L379.237 97.5762L388.986 94.3387L398.958 91.6085L409.135 89.3913L419.499 87.69L430.033 86.5052L440.717 85.8346L451.531 85.6735L462.454 86.0142L473.464 86.8466L484.541 88.1584L495.664 89.9345L506.811 92.1582L517.961 94.8103L529.095 97.8699L540.192 101.314L551.234 105.116L562.202 109.248L573.076 113.676L583.841 118.365L594.478 123.276L604.972 128.365L615.311 133.591L625.481 138.906L635.473 144.266L645.279 149.625L654.894 154.935L664.314 160.152L673.539 165.232L682.57 170.133L691.411 174.815L700.068 179.238L708.547 183.366L716.86 187.162L725.017 190.593L733.031 193.627L740.916 196.234L748.69 198.388L756.369 200.065L763.973 201.244L771.52 201.909L779.032 202.045L786.53 201.643L794.035 200.697L801.57 199.205L809.156 197.169L816.816 194.594L824.569 191.49L832.439 187.87L840.443 183.751L848.602 179.153L856.933 174.101L865.453 168.621L874.175 162.744L883.115 156.502L892.282 149.931L901.687 143.069L911.338 135.955L921.239 128.631L931.394 121.139L941.804 113.525L952.469 105.832L963.385 98.107L974.546 90.3949L985.946 82.7416L997.575 75.1927L1009.42 67.7927L1021.47 60.5856L1033.71 53.614L1046.12 46.9192L1058.68 40.5407L1071.38 34.5163L1084.19 28.8815L1097.09 23.6697L1110.06 18.9117L1123.06 14.636L1136.09 10.8681L1149.11 7.63088L1162.1 4.94427L1175.04 2.8253L1187.89 1.28804L1200.64 0.343563L1213.25 0L1225.71 0.262529L1238 1.13344L1250.09 2.61218L1261.96 4.69546L1273.59 7.37732L1284.97 10.6492L1296.08 14.5002L1306.9 18.917L1317.42 23.884L1327.62 29.3837L1337.51 35.3964L1347.07 41.9009L1356.29 48.8739L1365.18 56.2908L1373.73 64.1252L1381.94 72.3496L1389.82 80.935L1397.37 89.8514L1404.6 99.0687L1411.52 108.557L1418.14 118.286L1424.48 128.228L1430.53 138.358L1436.32 148.65L1441.86 159.084L1447.15 169.639L1452.21 180.298L1457.04 191.043L1461.66 201.861L1466.06 212.741L1470.26 223.671L1474.26 234.644L1478.06 245.654L1481.66 256.698L1485.06 267.771L1488.26 278.87L1491.25 289.992L1494.04 301.134L1496.63 312.291L1499.02 323.46L1501.2 334.638L1503.17 345.821L1504.95 357.005L1506.51 368.186L1507.88 379.359L1509.04 390.52L1510.01 401.663L1510.78 412.784L1511.36 423.877L1511.76 434.937L1511.97 445.959L1512 456.937L1511.86 467.865L1511.56 478.74L1511.1 489.556L1510.49 500.307L1509.74 510.99L1508.85 521.599L1507.84 532.132L1506.7 542.583L1505.46 552.95L1504.11 563.23L1502.68 573.42L1501.16 583.517L1499.56 593.519L1497.9 603.426L1496.17 613.236L1494.4 622.948L1492.59 632.562L1490.74 642.078L1488.87 651.497L1486.98 660.818L1485.08 670.044L1483.18 679.175L1481.28 688.214L1479.39 697.162L1477.52 706.022L1475.67 714.797L1473.86 723.49L1472.07 732.103L1470.33 740.641L1468.63 749.107L1466.98 757.505L1465.39 765.838L1463.84 774.113L1462.36 782.332L1460.94 790.5L1459.58 798.622L1458.28 806.703L1457.05 814.746L1455.89 822.758Z" fill="url(#paint0_linear_42_1294)"/>
<defs>
<linearGradient id="paint0_linear_42_1294" x1="718.5" y1="0" x2="718.5" y2="1746.97" gradientUnits="userSpaceOnUse">
<stop stop-color="#99D9FD" stop-opacity="0.992858"/>
<stop offset="1" stop-color="#EEFBFF" stop-opacity="0.54"/>
</linearGradient>
</defs>
</svg>
