<svg width="1587" height="1747" viewBox="0 0 1587 1747" fill="none" xmlns="http://www.w3.org/2000/svg">
<path fill-rule="evenodd" clip-rule="evenodd" d="M1530.89 822.758V822.758L1529.78 830.742L1528.74 838.703L1527.75 846.646L1526.83 854.575L1525.95 862.494L1525.12 870.407L1524.34 878.317L1523.59 886.228L1522.88 894.143L1522.19 902.065L1521.52 909.996L1520.85 917.937L1520.19 925.891L1519.52 933.858L1518.85 941.84L1518.14 949.837L1517.41 957.848L1516.64 965.872L1515.81 973.907L1514.91 981.951L1513.92 989.998L1512.82 998.043L1511.61 1006.08L1510.26 1014.1L1508.74 1022.1L1507.06 1030.06L1505.18 1037.99L1503.1 1045.86L1500.8 1053.66L1498.27 1061.39L1495.49 1069.04L1492.46 1076.59L1489.17 1084.03L1485.62 1091.35L1481.79 1098.54L1477.7 1105.59L1473.32 1112.48L1468.67 1119.22L1463.76 1125.78L1458.57 1132.17L1453.13 1138.37L1447.43 1144.38L1441.49 1150.2L1435.32 1155.81L1428.93 1161.22L1422.33 1166.43L1415.55 1171.44L1408.59 1176.25L1401.48 1180.86L1394.23 1185.28L1386.87 1189.51L1379.4 1193.56L1371.85 1197.44L1364.24 1201.16L1356.6 1204.74L1348.93 1208.18L1341.26 1211.49L1333.6 1214.71L1325.98 1217.83L1318.42 1220.88L1310.93 1223.87L1303.52 1226.83L1296.22 1229.78L1289.03 1232.73L1281.98 1235.7L1275.06 1238.72L1268.3 1241.8L1261.7 1244.97L1255.26 1248.25L1249.01 1251.66L1242.93 1255.21L1237.04 1258.94L1231.33 1262.86L1225.81 1266.98L1220.47 1271.33L1215.31 1275.92L1210.33 1280.77L1205.52 1285.89L1200.88 1291.3L1196.39 1297.01L1192.05 1303.03L1187.84 1309.37L1183.75 1316.04L1179.78 1323.03L1175.89 1330.36L1172.09 1338.03L1168.35 1346.04L1164.65 1354.38L1160.98 1363.05L1157.32 1372.05L1153.66 1381.36L1149.96 1390.98L1146.22 1400.9L1142.42 1411.09L1138.53 1421.55L1134.54 1432.26L1130.44 1443.21L1126.19 1454.36L1121.8 1465.7L1117.24 1477.22L1112.5 1488.88L1107.56 1500.67L1102.41 1512.55L1097.05 1524.51L1091.45 1536.52L1085.61 1548.54L1079.52 1560.55L1073.17 1572.5L1066.55 1584.38L1059.65 1596.13L1052.48 1607.72L1045.02 1619.11L1037.28 1630.27L1029.25 1641.15L1020.95 1651.7L1012.36 1661.9L1003.49 1671.68L994.36 1681.02L984.971 1689.88L975.334 1698.21L965.464 1705.98L955.374 1713.15L945.082 1719.71L934.605 1725.61L923.963 1730.83L913.177 1735.35L902.268 1739.15L891.259 1742.21L880.174 1744.53L869.035 1746.1L857.868 1746.91L846.696 1746.97L835.544 1746.27L824.435 1744.83L813.392 1742.65L802.438 1739.75L791.595 1736.15L780.882 1731.87L770.318 1726.94L759.923 1721.38L749.711 1715.22L739.697 1708.51L729.893 1701.27L720.311 1693.54L710.957 1685.36L701.84 1676.78L692.962 1667.84L684.326 1658.58L675.932 1649.05L667.776 1639.3L659.853 1629.37L652.157 1619.31L644.678 1609.17L637.404 1598.99L630.321 1588.82L623.414 1578.7L616.666 1568.68L610.056 1558.8L603.564 1549.1L597.167 1539.61L590.843 1530.38L584.565 1521.44L578.309 1512.81L572.048 1504.53L565.755 1496.62L559.404 1489.1L552.966 1481.99L546.416 1475.31L539.728 1469.06L532.874 1463.26L525.831 1457.91L518.576 1453.01L511.086 1448.55L503.341 1444.54L495.322 1440.95L487.013 1437.79L478.4 1435.03L469.47 1432.64L460.215 1430.62L450.628 1428.93L440.705 1427.54L430.445 1426.43L419.85 1425.56L408.923 1424.89L397.674 1424.41L386.11 1424.06L374.245 1423.81L362.094 1423.62L349.674 1423.46L337.006 1423.29L324.114 1423.07L311.023 1422.77L297.766 1422.33L284.374 1421.72L270.883 1420.91L257.33 1419.86L243.754 1418.53L230.195 1416.88L216.693 1414.9L203.289 1412.56L190.024 1409.82L176.937 1406.67L164.068 1403.09L151.455 1399.07L139.136 1394.6L127.148 1389.66L115.528 1384.25L104.312 1378.36L93.5337 1372L83.2248 1365.16L73.4161 1357.86L64.1362 1350.09L55.4115 1341.86L47.2664 1333.19L39.7228 1324.09L32.8001 1314.58L26.5151 1304.67L20.8819 1294.39L15.9117 1283.74L11.6127 1272.77L7.99041 1261.48L5.04694 1249.91L2.78157 1238.08L1.19041 1226.02L0.266546 1213.76L0 1201.32L0.377826 1188.73L1.38417 1176.02L3.00035 1163.23L5.20502 1150.37L7.97423 1137.47L11.2816 1124.56L15.0987 1111.67L19.3948 1098.82L24.1374 1086.04L29.2924 1073.34L34.8244 1060.75L40.6967 1048.29L46.8718 1035.97L53.3113 1023.82L59.9768 1011.83L66.8294 1000.04L73.8305 988.439L80.9418 977.046L88.1256 965.865L95.3452 954.9L102.565 944.155L109.75 933.63L116.868 923.324L123.888 913.235L130.781 903.359L137.519 893.691L144.077 884.223L150.433 874.947L156.567 865.854L162.461 856.935L168.101 848.177L173.473 839.57L178.568 831.101L183.378 822.758L187.901 814.527L192.132 806.397L196.074 798.353L199.729 790.384L203.102 782.476L206.202 774.619L209.038 766.801L211.621 759.011L213.966 751.239L216.088 743.476L218.004 735.714L219.733 727.946L221.293 720.166L222.706 712.368L223.994 704.55L225.178 696.707L226.28 688.84L227.321 680.945L228.321 673.024L229.298 665.077L230.271 657.105L231.253 649.109L232.26 641.09L233.301 633.052L234.388 624.994L235.525 616.918L236.718 608.825L237.967 600.714L239.27 592.584L240.624 584.433L242.024 576.258L243.465 568.055L244.943 559.822L246.454 551.555L247.993 543.249L249.555 534.902L251.138 526.507L252.737 518.062L254.351 509.561L255.978 501L257.615 492.376L259.262 483.684L260.92 474.92L262.589 466.082L264.271 457.165L265.968 448.168L267.685 439.088L269.424 429.923L271.192 420.674L272.994 411.341L274.838 401.923L276.729 392.423L278.678 382.843L280.693 373.187L282.784 363.459L284.96 353.666L287.234 343.813L289.616 333.91L292.118 323.965L294.753 313.988L297.533 303.992L300.471 293.988L303.579 283.992L306.871 274.017L310.358 264.081L314.054 254.201L317.971 244.395L322.12 234.682L326.513 225.085L331.16 215.622L336.071 206.318L341.255 197.193L346.721 188.272L352.474 179.578L358.521 171.135L364.867 162.966L371.515 155.096L378.466 147.547L385.721 140.343L393.279 133.506L401.137 127.058L409.291 121.018L417.735 115.407L426.462 110.242L435.461 105.539L444.724 101.313L454.237 97.5762L463.986 94.3387L473.958 91.6085L484.135 89.3913L494.499 87.69L505.033 86.5052L515.717 85.8346L526.531 85.6735L537.454 86.0142L548.464 86.8466L559.541 88.1584L570.664 89.9345L581.811 92.1582L592.961 94.8103L604.095 97.8699L615.192 101.314L626.234 105.116L637.202 109.248L648.076 113.676L658.841 118.365L669.478 123.276L679.972 128.365L690.311 133.591L700.481 138.906L710.473 144.266L720.279 149.625L729.894 154.935L739.314 160.152L748.539 165.232L757.57 170.133L766.411 174.815L775.068 179.238L783.547 183.366L791.86 187.162L800.017 190.593L808.031 193.627L815.916 196.234L823.69 198.388L831.369 200.065L838.973 201.244L846.52 201.909L854.032 202.045L861.53 201.643L869.035 200.697L876.57 199.205L884.156 197.169L891.816 194.594L899.569 191.49L907.439 187.87L915.443 183.751L923.602 179.153L931.933 174.101L940.453 168.621L949.175 162.744L958.115 156.502L967.282 149.931L976.687 143.069L986.338 135.955L996.239 128.631L1006.39 121.139L1016.8 113.525L1027.47 105.832L1038.38 98.107L1049.55 90.3949L1060.95 82.7416L1072.58 75.1927L1084.42 67.7927L1096.47 60.5856L1108.71 53.614L1121.12 46.9192L1133.68 40.5407L1146.38 34.5163L1159.19 28.8815L1172.09 23.6697L1185.06 18.9117L1198.06 14.636L1211.09 10.8681L1224.11 7.63088L1237.1 4.94427L1250.04 2.8253L1262.89 1.28804L1275.64 0.343563L1288.25 0L1300.71 0.262529L1313 1.13344L1325.09 2.61218L1336.96 4.69546L1348.59 7.37732L1359.97 10.6492L1371.08 14.5002L1381.9 18.917L1392.42 23.884L1402.62 29.3837L1412.51 35.3964L1422.07 41.9009L1431.29 48.8739L1440.18 56.2908L1448.73 64.1252L1456.94 72.3496L1464.82 80.935L1472.37 89.8514L1479.6 99.0687L1486.52 108.557L1493.14 118.286L1499.48 128.228L1505.53 138.358L1511.32 148.65L1516.86 159.084L1522.15 169.639L1527.21 180.298L1532.04 191.043L1536.66 201.861L1541.06 212.741L1545.26 223.671L1549.26 234.644L1553.06 245.654L1556.66 256.698L1560.06 267.771L1563.26 278.87L1566.25 289.992L1569.04 301.134L1571.63 312.291L1574.02 323.46L1576.2 334.638L1578.17 345.821L1579.95 357.005L1581.51 368.186L1582.88 379.359L1584.04 390.52L1585.01 401.663L1585.78 412.784L1586.36 423.877L1586.76 434.937L1586.97 445.959L1587 456.937L1586.86 467.865L1586.56 478.74L1586.1 489.556L1585.49 500.307L1584.74 510.99L1583.85 521.599L1582.84 532.132L1581.7 542.583L1580.46 552.95L1579.11 563.23L1577.68 573.42L1576.16 583.517L1574.56 593.519L1572.9 603.426L1571.17 613.236L1569.4 622.948L1567.59 632.562L1565.74 642.078L1563.87 651.497L1561.98 660.818L1560.08 670.044L1558.18 679.175L1556.28 688.214L1554.39 697.162L1552.52 706.022L1550.67 714.797L1548.86 723.49L1547.07 732.103L1545.33 740.641L1543.63 749.107L1541.98 757.505L1540.39 765.838L1538.84 774.113L1537.36 782.332L1535.94 790.5L1534.58 798.622L1533.28 806.703L1532.05 814.746L1530.89 822.758" fill="url(#paint0_linear_83_100)"/>
<defs>
<linearGradient id="paint0_linear_83_100" x1="793.5" y1="0" x2="793.5" y2="1746.97" gradientUnits="userSpaceOnUse">
<stop stop-color="#99D9FD" stop-opacity="0.992858"/>
<stop offset="1" stop-color="#EEFBFF" stop-opacity="0.54"/>
</linearGradient>
</defs>
</svg>
